<svg xmlns="http://www.w3.org/2000/svg" xmlns:xlink="http://www.w3.org/1999/xlink" width="500" zoomAndPan="magnify" viewBox="0 0 375 374.999991" height="500" preserveAspectRatio="xMidYMid meet" version="1.0"><defs><g/><clipPath id="f64e7807e2"><path d="M 40 40 L 335 40 L 335 335 L 40 335 Z M 40 40 " clip-rule="nonzero"/></clipPath><clipPath id="5c22095f4d"><path d="M 193.800781 42.828125 L 195.753906 44.480469 C 199.554688 47.695312 204.933594 48.261719 209.320312 45.902344 L 211.589844 44.683594 C 215.785156 42.429688 220.996094 43.535156 223.910156 47.300781 L 225.464844 49.304688 C 228.515625 53.238281 233.660156 54.90625 238.4375 53.511719 L 240.929688 52.78125 C 245.496094 51.449219 250.363281 53.613281 252.429688 57.898438 L 253.523438 60.167969 C 255.683594 64.648438 260.371094 67.351562 265.332031 66.972656 L 267.925781 66.773438 C 272.671875 66.414062 276.980469 69.539062 278.105469 74.164062 L 278.699219 76.597656 C 279.875 81.429688 283.898438 85.042969 288.828125 85.699219 L 291.40625 86.042969 C 296.121094 86.667969 299.683594 90.625 299.820312 95.378906 L 299.890625 97.875 C 300.03125 102.84375 303.214844 107.214844 307.902344 108.878906 L 310.34375 109.742188 C 314.824219 111.332031 317.484375 115.9375 316.625 120.613281 L 316.171875 123.074219 C 315.269531 127.960938 317.472656 132.898438 321.710938 135.496094 L 323.910156 136.839844 C 327.960938 139.320312 329.605469 144.378906 327.789062 148.769531 L 326.828125 151.09375 C 324.925781 155.683594 326.050781 160.972656 329.660156 164.390625 L 331.511719 166.144531 C 334.960938 169.414062 335.515625 174.703125 332.824219 178.617188 L 331.390625 180.703125 C 328.574219 184.796875 328.574219 190.203125 331.390625 194.296875 L 332.824219 196.382812 C 335.515625 200.296875 334.960938 205.585938 331.511719 208.855469 L 329.660156 210.609375 C 326.050781 214.027344 324.925781 219.316406 326.828125 223.90625 L 327.789062 226.230469 C 329.605469 230.621094 327.960938 235.679688 323.910156 238.160156 L 321.710938 239.503906 C 317.472656 242.101562 315.269531 247.039062 316.171875 251.925781 L 316.625 254.386719 C 317.484375 259.0625 314.824219 263.667969 310.34375 265.257812 L 307.902344 266.121094 C 303.214844 267.785156 300.03125 272.15625 299.890625 277.125 L 299.820312 279.621094 C 299.683594 284.375 296.121094 288.332031 291.40625 288.957031 L 288.828125 289.300781 C 283.898438 289.957031 279.875 293.570312 278.699219 298.402344 L 278.105469 300.835938 C 276.980469 305.460938 272.671875 308.585938 267.925781 308.226562 L 265.332031 308.027344 C 260.371094 307.648438 255.683594 310.351562 253.523438 314.832031 L 252.429688 317.101562 C 250.363281 321.386719 245.496094 323.554688 240.929688 322.21875 L 238.4375 321.488281 C 233.660156 320.09375 228.515625 321.761719 225.464844 325.695312 L 223.910156 327.699219 C 220.996094 331.464844 215.785156 332.570312 211.589844 330.316406 L 209.320312 329.097656 C 204.933594 326.738281 199.554688 327.304688 195.753906 330.519531 L 193.800781 332.171875 C 190.164062 335.246094 184.835938 335.246094 181.199219 332.171875 L 179.246094 330.519531 C 175.445312 327.304688 170.066406 326.738281 165.679688 329.097656 L 163.410156 330.316406 C 159.214844 332.570312 154.003906 331.464844 151.089844 327.699219 L 149.535156 325.695312 C 146.484375 321.761719 141.339844 320.09375 136.5625 321.488281 L 134.070312 322.21875 C 129.503906 323.554688 124.636719 321.386719 122.570312 317.101562 L 121.476562 314.832031 C 119.316406 310.351562 114.628906 307.648438 109.667969 308.027344 L 107.074219 308.226562 C 102.328125 308.585938 98.019531 305.460938 96.894531 300.835938 L 96.300781 298.402344 C 95.125 293.570312 91.101562 289.957031 86.171875 289.300781 L 83.59375 288.957031 C 78.878906 288.332031 75.316406 284.375 75.179688 279.621094 L 75.109375 277.125 C 74.96875 272.15625 71.785156 267.785156 67.097656 266.121094 L 64.65625 265.257812 C 60.175781 263.667969 57.515625 259.0625 58.375 254.386719 L 58.828125 251.925781 C 59.730469 247.039062 57.527344 242.101562 53.289062 239.503906 L 51.089844 238.160156 C 47.039062 235.679688 45.394531 230.621094 47.210938 226.230469 L 48.171875 223.90625 C 50.074219 219.316406 48.949219 214.027344 45.339844 210.609375 L 43.488281 208.855469 C 40.039062 205.585938 39.484375 200.296875 42.175781 196.382812 L 43.609375 194.296875 C 46.425781 190.203125 46.425781 184.796875 43.609375 180.703125 L 42.175781 178.617188 C 39.484375 174.703125 40.039062 169.414062 43.488281 166.144531 L 45.339844 164.390625 C 48.949219 160.972656 50.074219 155.683594 48.171875 151.09375 L 47.210938 148.769531 C 45.394531 144.378906 47.039062 139.320312 51.089844 136.839844 L 53.289062 135.496094 C 57.527344 132.898438 59.730469 127.960938 58.828125 123.074219 L 58.375 120.613281 C 57.515625 115.9375 60.175781 111.332031 64.65625 109.742188 L 67.097656 108.878906 C 71.785156 107.214844 74.96875 102.84375 75.109375 97.875 L 75.179688 95.378906 C 75.316406 90.625 78.878906 86.667969 83.59375 86.042969 L 86.171875 85.699219 C 91.101562 85.042969 95.125 81.429688 96.300781 76.597656 L 96.894531 74.164062 C 98.019531 69.539062 102.328125 66.414062 107.074219 66.773438 L 109.667969 66.972656 C 114.628906 67.351562 119.316406 64.648438 121.476562 60.167969 L 122.570312 57.898438 C 124.636719 53.613281 129.503906 51.449219 134.070312 52.78125 L 136.5625 53.511719 C 141.339844 54.90625 146.484375 53.238281 149.535156 49.304688 L 151.089844 47.300781 C 154.003906 43.535156 159.214844 42.429688 163.410156 44.683594 L 165.679688 45.902344 C 170.066406 48.261719 175.445312 47.695312 179.246094 44.480469 L 181.199219 42.828125 C 184.835938 39.753906 190.164062 39.753906 193.800781 42.828125 Z M 193.800781 42.828125 " clip-rule="nonzero"/></clipPath><clipPath id="79b446a89b"><path d="M 54 54 L 321 54 L 321 320 L 54 320 Z M 54 54 " clip-rule="nonzero"/></clipPath><clipPath id="37a4ff2ce4"><path d="M 194.078125 56.882812 C 198.046875 60.238281 203.667969 60.828125 208.25 58.367188 L 208.273438 58.355469 C 212.648438 56.003906 218.082031 57.15625 221.125 61.085938 C 224.308594 65.191406 229.675781 66.929688 234.660156 65.472656 L 234.71875 65.457031 C 239.480469 64.0625 244.550781 66.320312 246.707031 70.789062 C 248.957031 75.460938 253.84375 78.273438 259.015625 77.878906 L 259.097656 77.875 C 264.039062 77.496094 268.523438 80.753906 269.699219 85.570312 C 270.925781 90.601562 275.113281 94.367188 280.25 95.050781 L 280.339844 95.0625 C 285.246094 95.714844 288.957031 99.832031 289.097656 104.78125 C 289.242188 109.957031 292.558594 114.507812 297.4375 116.238281 L 297.515625 116.265625 C 302.179688 117.917969 304.953125 122.71875 304.054688 127.585938 C 303.117188 132.675781 305.410156 137.816406 309.828125 140.519531 L 309.878906 140.550781 C 314.101562 143.136719 315.8125 148.410156 313.921875 152.984375 C 311.941406 157.769531 313.113281 163.277344 316.871094 166.839844 L 316.890625 166.859375 C 320.488281 170.265625 321.066406 175.785156 318.261719 179.867188 C 315.324219 184.136719 315.324219 189.773438 318.261719 194.042969 C 321.066406 198.125 320.488281 203.644531 316.890625 207.050781 L 316.871094 207.070312 C 313.113281 210.632812 311.941406 216.144531 313.921875 220.925781 C 315.8125 225.5 314.101562 230.773438 309.878906 233.359375 L 309.828125 233.390625 C 305.410156 236.09375 303.117188 241.234375 304.054688 246.324219 C 304.953125 251.195312 302.179688 255.992188 297.515625 257.644531 L 297.4375 257.671875 C 292.558594 259.402344 289.242188 263.953125 289.097656 269.128906 C 288.957031 274.078125 285.246094 278.195312 280.339844 278.847656 L 280.25 278.859375 C 275.113281 279.542969 270.925781 283.308594 269.699219 288.339844 C 268.523438 293.15625 264.039062 296.414062 259.097656 296.035156 L 259.015625 296.03125 C 253.84375 295.636719 248.957031 298.449219 246.707031 303.121094 C 244.550781 307.589844 239.480469 309.847656 234.71875 308.453125 L 234.660156 308.4375 C 229.675781 306.980469 224.308594 308.722656 221.125 312.828125 C 218.082031 316.753906 212.648438 317.90625 208.273438 315.554688 L 208.25 315.542969 C 203.667969 313.082031 198.046875 313.671875 194.078125 317.027344 C 190.28125 320.242188 184.71875 320.242188 180.917969 317.027344 C 176.949219 313.671875 171.328125 313.082031 166.75 315.542969 L 166.726562 315.554688 C 162.347656 317.90625 156.914062 316.753906 153.871094 312.828125 C 150.691406 308.722656 145.320312 306.980469 140.335938 308.4375 L 140.277344 308.453125 C 135.515625 309.847656 130.445312 307.589844 128.292969 303.121094 C 126.039062 298.449219 121.152344 295.636719 115.984375 296.03125 L 115.902344 296.035156 C 110.960938 296.414062 106.472656 293.15625 105.300781 288.339844 C 104.074219 283.308594 99.882812 279.542969 94.75 278.859375 L 94.660156 278.847656 C 89.75 278.195312 86.039062 274.078125 85.898438 269.128906 C 85.753906 263.953125 82.441406 259.402344 77.558594 257.671875 L 77.484375 257.644531 C 72.816406 255.992188 70.042969 251.195312 70.941406 246.324219 C 71.878906 241.234375 69.585938 236.09375 65.171875 233.390625 L 65.121094 233.359375 C 60.898438 230.773438 59.183594 225.5 61.078125 220.925781 C 63.058594 216.144531 61.882812 210.632812 58.125 207.070312 L 58.105469 207.050781 C 54.507812 203.644531 53.929688 198.125 56.738281 194.042969 C 59.675781 189.773438 59.675781 184.136719 56.738281 179.867188 C 53.929688 175.785156 54.507812 170.265625 58.105469 166.859375 L 58.125 166.839844 C 61.882812 163.277344 63.058594 157.765625 61.078125 152.984375 C 59.183594 148.410156 60.898438 143.136719 65.121094 140.550781 L 65.171875 140.519531 C 69.585938 137.816406 71.878906 132.675781 70.941406 127.585938 C 70.042969 122.71875 72.816406 117.917969 77.484375 116.265625 L 77.558594 116.238281 C 82.441406 114.507812 85.753906 109.957031 85.898438 104.78125 C 86.039062 99.832031 89.75 95.714844 94.660156 95.0625 L 94.75 95.050781 C 99.882812 94.367188 104.074219 90.601562 105.300781 85.570312 C 106.472656 80.753906 110.960938 77.496094 115.902344 77.875 L 115.984375 77.878906 C 121.15625 78.273438 126.039062 75.460938 128.292969 70.789062 C 130.445312 66.320312 135.515625 64.0625 140.277344 65.457031 L 140.335938 65.472656 C 145.320312 66.929688 150.691406 65.191406 153.871094 61.085938 C 156.914062 57.15625 162.347656 56.003906 166.726562 58.355469 L 166.75 58.367188 C 171.328125 60.828125 176.949219 60.238281 180.917969 56.882812 C 184.71875 53.667969 190.28125 53.667969 194.078125 56.882812 Z M 194.078125 56.882812 " clip-rule="nonzero"/></clipPath></defs><rect x="-37.5" width="450" fill="#ffffff" y="-37.499999" height="449.999989" fill-opacity="1"/><rect x="-37.5" width="450" fill="#ffffff" y="-37.499999" height="449.999989" fill-opacity="1"/><g clip-path="url(#f64e7807e2)"><g clip-path="url(#5c22095f4d)"><path fill="#ffabbf" d="M 37.5 37.5 L 337.5 37.5 L 337.5 337.5 L 37.5 337.5 Z M 37.5 37.5 " fill-opacity="1" fill-rule="nonzero"/></g></g><g clip-path="url(#79b446a89b)"><g clip-path="url(#37a4ff2ce4)"><path stroke-linecap="butt" transform="matrix(0.75, 0, 0, 0.75, 51.859957, 51.316893)" fill="none" stroke-linejoin="miter" d="M 189.624236 7.421227 C 194.915903 11.895186 202.410695 12.681644 208.520071 9.400394 L 208.551321 9.384769 C 214.384655 6.249352 221.629447 7.78581 225.686739 13.025394 C 229.931531 18.499353 237.087781 20.817061 243.733615 18.874353 L 243.81174 18.853519 C 250.160699 16.994144 256.921116 20.004561 259.796116 25.962895 C 262.796116 32.192062 269.311742 35.942062 276.207575 35.41602 L 276.31695 35.410812 C 282.905492 34.905604 288.88466 39.249354 290.452368 45.671229 C 292.087785 52.379563 297.671118 57.400397 304.520077 58.311855 L 304.639869 58.32748 C 311.181536 59.197272 316.129453 64.686856 316.316953 71.285815 C 316.509661 78.186857 320.931537 84.254565 327.436745 86.561857 L 327.540912 86.598316 C 333.759662 88.801441 337.457579 95.202483 336.259663 101.692067 C 335.009663 108.478525 338.066954 115.332692 343.95758 118.936859 L 344.025288 118.978526 C 349.655497 122.426443 351.936747 129.457693 349.415913 135.556652 C 346.775288 141.931652 348.337788 149.280611 353.348205 154.030612 L 353.374247 154.056653 C 358.171122 158.59832 358.941956 165.957696 355.202372 171.400404 C 351.285705 177.093113 351.285705 184.608739 355.202372 190.301447 C 358.941956 195.744156 358.171122 203.103531 353.374247 207.645198 L 353.348205 207.67124 C 348.337788 212.42124 346.775288 219.770199 349.415913 226.1452 C 351.936747 232.244158 349.655497 239.275409 344.025288 242.723326 L 343.95758 242.764992 C 338.066954 246.369159 335.009663 253.223326 336.259663 260.009785 C 337.457579 266.504577 333.759662 272.900411 327.540912 275.103536 L 327.436745 275.139995 C 320.931537 277.447286 316.509661 283.514995 316.316953 290.416037 C 316.129453 297.014996 311.181536 302.50458 304.639869 303.374371 L 304.520077 303.389996 C 297.671118 304.301455 292.087785 309.322288 290.452368 316.030622 C 288.88466 322.452498 282.905492 326.796248 276.31695 326.29104 L 276.207575 326.285831 C 269.311742 325.75979 262.796116 329.50979 259.796116 335.738957 C 256.921116 341.697291 250.160699 344.707707 243.81174 342.848332 L 243.733615 342.827499 C 237.087781 340.884791 229.931531 343.207707 225.686739 348.681666 C 221.629447 353.916041 214.384655 355.4525 208.551321 352.317083 L 208.520071 352.301458 C 202.410695 349.020208 194.915903 349.806666 189.624236 354.280625 C 184.561736 358.567083 177.145069 358.567083 172.07736 354.280625 C 166.785693 349.806666 159.290901 349.020208 153.186734 352.301458 L 153.155484 352.317083 C 147.316942 355.4525 140.07215 353.916041 136.014858 348.681666 C 131.775274 343.207707 124.613815 340.884791 117.967982 342.827499 L 117.889857 342.848332 C 111.540898 344.707707 104.780481 341.697291 101.910689 335.738957 C 98.90548 329.50979 92.389855 325.75979 85.499229 326.285831 L 85.389854 326.29104 C 78.801312 326.796248 72.816937 322.452498 71.254437 316.030622 C 69.61902 309.322288 64.030478 304.301455 57.186728 303.389996 L 57.066936 303.374371 C 50.520061 302.50458 45.572144 297.014996 45.384644 290.416037 C 45.191935 283.514995 40.775268 277.447286 34.264851 275.139995 L 34.165893 275.103536 C 27.941934 272.900411 24.244017 266.504577 25.441934 260.009785 C 26.691934 253.223326 23.634642 246.369159 17.749225 242.764992 L 17.681517 242.723326 C 12.051308 239.275409 9.76485 232.244158 12.290891 226.1452 C 14.931517 219.770199 13.363808 212.42124 8.353391 207.67124 L 8.327349 207.645198 C 3.530474 203.103531 2.759641 195.744156 6.504433 190.301447 C 10.4211 184.608739 10.4211 177.093113 6.504433 171.400404 C 2.759641 165.957696 3.530474 158.59832 8.327349 154.056653 L 8.353391 154.030612 C 13.363808 149.280611 14.931517 141.931652 12.290891 135.556652 C 9.76485 129.457693 12.051308 122.426443 17.681517 118.978526 L 17.749225 118.936859 C 23.634642 115.332692 26.691934 108.478525 25.441934 101.692067 C 24.244017 95.202483 27.941934 88.801441 34.165893 86.598316 L 34.264851 86.561857 C 40.775268 84.254565 45.191935 78.186857 45.384644 71.285815 C 45.572144 64.686856 50.520061 59.197272 57.066936 58.32748 L 57.186728 58.311855 C 64.030478 57.400397 69.61902 52.379563 71.254437 45.671229 C 72.816937 39.249354 78.801312 34.905604 85.389854 35.410812 L 85.499229 35.41602 C 92.395063 35.942062 98.90548 32.192062 101.910689 25.962895 C 104.780481 20.004561 111.540898 16.994144 117.889857 18.853519 L 117.967982 18.874353 C 124.613815 20.817061 131.775274 18.499353 136.014858 13.025394 C 140.07215 7.78581 147.316942 6.249352 153.155484 9.384769 L 153.186734 9.400394 C 159.290901 12.681644 166.785693 11.895186 172.07736 7.421227 C 177.145069 3.134768 184.561736 3.134768 189.624236 7.421227 Z M 189.624236 7.421227 " stroke="#fee8e6" stroke-width="4" stroke-opacity="1" stroke-miterlimit="4"/></g></g><g fill="#ffffff" fill-opacity="1"><g transform="translate(117.101243, 277.108456)"><g><path d="M 10.765625 -181.359375 C 14.347656 -181.191406 19.039062 -181.019531 24.84375 -180.84375 C 30.65625 -180.675781 36.378906 -180.59375 42.015625 -180.59375 C 50.035156 -180.59375 57.71875 -180.675781 65.0625 -180.84375 C 72.40625 -181.019531 77.613281 -181.109375 80.6875 -181.109375 C 98.613281 -181.109375 112.101562 -177.347656 121.15625 -169.828125 C 130.207031 -162.316406 134.734375 -152.671875 134.734375 -140.890625 C 134.734375 -134.910156 133.492188 -129.0625 131.015625 -123.34375 C 128.546875 -117.625 124.445312 -112.414062 118.71875 -107.71875 C 113 -103.019531 105.359375 -99.21875 95.796875 -96.3125 L 95.796875 -95.796875 C 109.285156 -94.085938 119.832031 -90.882812 127.4375 -86.1875 C 135.039062 -81.5 140.378906 -75.992188 143.453125 -69.671875 C 146.523438 -63.359375 148.0625 -56.695312 148.0625 -49.6875 C 148.0625 -39.957031 145.625 -31.378906 140.75 -23.953125 C 135.882812 -16.523438 128.84375 -10.675781 119.625 -6.40625 C 110.40625 -2.132812 99.390625 0 86.578125 0 C 82.828125 0 77.191406 -0.125 69.671875 -0.375 C 62.160156 -0.632812 53.109375 -0.765625 42.515625 -0.765625 C 36.546875 -0.765625 30.65625 -0.722656 24.84375 -0.640625 C 19.039062 -0.554688 14.347656 -0.34375 10.765625 0 L 10.765625 -5.125 C 16.566406 -5.46875 20.960938 -6.148438 23.953125 -7.171875 C 26.941406 -8.191406 28.945312 -10.238281 29.96875 -13.3125 C 30.988281 -16.394531 31.5 -21.007812 31.5 -27.15625 L 31.5 -154.203125 C 31.5 -160.523438 30.988281 -165.179688 29.96875 -168.171875 C 28.945312 -171.160156 26.941406 -173.207031 23.953125 -174.3125 C 20.960938 -175.425781 16.566406 -176.066406 10.765625 -176.234375 Z M 74.28125 -176.234375 C 66.425781 -176.234375 61.300781 -174.78125 58.90625 -171.875 C 56.519531 -168.976562 55.328125 -163.085938 55.328125 -154.203125 L 55.328125 -27.15625 C 55.328125 -21.175781 55.835938 -16.648438 56.859375 -13.578125 C 57.890625 -10.503906 59.769531 -8.453125 62.5 -7.421875 C 65.226562 -6.398438 69.242188 -5.890625 74.546875 -5.890625 C 91.273438 -5.890625 103.4375 -9.773438 111.03125 -17.546875 C 118.632812 -25.316406 122.4375 -36.375 122.4375 -50.71875 C 122.4375 -63.863281 118.894531 -74.019531 111.8125 -81.1875 C 104.726562 -88.363281 93.070312 -91.953125 76.84375 -91.953125 L 50.46875 -91.953125 C 50.46875 -91.953125 50.46875 -92.675781 50.46875 -94.125 C 50.46875 -95.582031 50.46875 -96.3125 50.46875 -96.3125 L 72.5 -96.3125 C 82.570312 -96.3125 90.335938 -98.234375 95.796875 -102.078125 C 101.265625 -105.921875 105.019531 -111.039062 107.0625 -117.4375 C 109.113281 -123.84375 110.140625 -130.71875 110.140625 -138.0625 C 110.140625 -150.707031 107.363281 -160.226562 101.8125 -166.625 C 96.269531 -173.03125 87.09375 -176.234375 74.28125 -176.234375 Z M 74.28125 -176.234375 "/></g></g></g></svg>